<?xml version="1.0" encoding="utf-8"?>
<!-- Generator: Adobe Illustrator 16.0.0, SVG Export Plug-In . SVG Version: 6.00 Build 0)  -->
<!DOCTYPE svg PUBLIC "-//W3C//DTD SVG 1.1//EN" "http://www.w3.org/Graphics/SVG/1.1/DTD/svg11.dtd">
<svg version="1.1" id="Layer_1" xmlns="http://www.w3.org/2000/svg" xmlns:xlink="http://www.w3.org/1999/xlink" x="0px" y="0px"
	 width="130px" height="45px" viewBox="0 0 130 45" enable-background="new 0 0 130 45" xml:space="preserve">
<path fill="#ED1C24" d="M121.984,0H8.016C3.588,0,0,3.611,0,8.067V26.1c0,4.456,3.588,8.067,8.016,8.067h81.667L88.453,45
	l12.302-10.833h21.229c4.427,0,8.016-3.611,8.016-8.067V8.067C130,3.611,126.411,0,121.984,0z"/>
<g>
	<path fill="#FFFFFF" d="M11.822,8.002h11.299v2.971h-7.765v3.714h6.729v2.746h-6.729v6.64h-3.534V8.002z"/>
	<path fill="#FFFFFF" d="M27.91,19.031c0.09,2.025,1.081,2.948,2.858,2.948c1.283,0,2.318-0.788,2.521-1.508h2.813
		c-0.9,2.746-2.813,3.916-5.447,3.916c-3.668,0-5.941-2.521-5.941-6.122c0-3.489,2.408-6.145,5.941-6.145
		c3.961,0,5.875,3.331,5.649,6.91H27.91z M33.109,17.005c-0.293-1.621-0.99-2.476-2.543-2.476c-2.025,0-2.611,1.576-2.656,2.476
		H33.109z"/>
	<path fill="#FFFFFF" d="M41.274,19.031c0.09,2.025,1.081,2.948,2.858,2.948c1.283,0,2.318-0.788,2.521-1.508h2.813
		c-0.9,2.746-2.813,3.916-5.447,3.916c-3.668,0-5.941-2.521-5.941-6.122c0-3.489,2.408-6.145,5.941-6.145
		c3.961,0,5.875,3.331,5.649,6.91H41.274z M46.474,17.005c-0.293-1.621-0.99-2.476-2.543-2.476c-2.025,0-2.611,1.576-2.656,2.476
		H46.474z"/>
	<path fill="#FFFFFF" d="M60.312,22.587h-0.045c-0.743,1.26-2.048,1.8-3.533,1.8c-3.511,0-5.222-3.016-5.222-6.234
		c0-3.128,1.733-6.032,5.154-6.032c1.373,0,2.724,0.585,3.466,1.733h-0.022h0.045V8.002h3.196v16.07h-3.038V22.587z M57.521,14.529
		c-2.093,0-2.813,1.801-2.813,3.714c0,1.823,0.833,3.736,2.813,3.736c2.116,0,2.746-1.845,2.746-3.758
		C60.266,16.33,59.591,14.529,57.521,14.529z"/>
	<path fill="#FFFFFF" d="M66.653,8.002h3.196v5.852h0.045c0.788-1.193,2.228-1.733,3.668-1.733c2.318,0,4.816,1.868,4.816,6.122
		c0,4.276-2.499,6.144-4.816,6.144c-1.71,0-3.128-0.518-3.826-1.8h-0.045v1.485h-3.039V8.002z M72.46,14.529
		c-1.891,0-2.723,1.778-2.723,3.736c0,1.936,0.833,3.713,2.723,3.713s2.724-1.778,2.724-3.713
		C75.184,16.308,74.351,14.529,72.46,14.529z"/>
	<path fill="#FFFFFF" d="M80.716,16.015c0.18-2.993,2.858-3.894,5.469-3.894c2.318,0,5.109,0.518,5.109,3.309v6.054
		c0,1.058,0.112,2.116,0.405,2.588h-3.241c-0.113-0.36-0.203-0.743-0.225-1.125c-1.013,1.058-2.499,1.44-3.917,1.44
		c-2.206,0-3.961-1.103-3.961-3.488c0-2.633,1.98-3.264,3.961-3.534c1.958-0.292,3.781-0.225,3.781-1.53
		c0-1.373-0.945-1.576-2.07-1.576c-1.215,0-2.003,0.495-2.116,1.755H80.716z M88.098,18.378c-0.54,0.473-1.666,0.495-2.656,0.675
		c-0.99,0.203-1.891,0.54-1.891,1.71c0,1.193,0.923,1.485,1.958,1.485c2.499,0,2.588-1.98,2.588-2.678V18.378z"/>
	<path fill="#FFFFFF" d="M102.138,16.533c-0.203-1.306-1.035-2.003-2.363-2.003c-2.048,0-2.723,2.071-2.723,3.781
		c0,1.666,0.653,3.668,2.656,3.668c1.485,0,2.341-0.945,2.543-2.363h3.083c-0.405,3.083-2.543,4.771-5.604,4.771
		c-3.511,0-5.874-2.476-5.874-5.964c0-3.624,2.161-6.302,5.941-6.302c2.746,0,5.267,1.44,5.469,4.412H102.138z"/>
	<path fill="#FFFFFF" d="M107.873,8.002h3.196v8.62l4.028-4.186h3.781l-4.389,4.276l4.884,7.36h-3.871l-3.196-5.199l-1.238,1.193
		v4.006h-3.196V8.002z"/>
</g>
</svg>
