<svg xmlns:dc="http://purl.org/dc/elements/1.1/" xmlns:cc="http://creativecommons.org/ns#" xmlns:rdf="http://www.w3.org/1999/02/22-rdf-syntax-ns#" xmlns:svg="http://www.w3.org/2000/svg" xmlns="http://www.w3.org/2000/svg" xmlns:sodipodi="http://sodipodi.sourceforge.net/DTD/sodipodi-0.dtd" xmlns:inkscape="http://www.inkscape.org/namespaces/inkscape" viewBox="0 0 26.458333 33.0729175" version="1.1" x="0px" y="0px"><g transform="translate(0,-270.54165)"><path style="color:#ff0000;font-style:normal;font-variant:normal;font-weight:normal;font-stretch:normal;font-size:medium;line-height:normal;font-family:sans-serif;font-variant-ligatures:normal;font-variant-position:normal;font-variant-caps:normal;font-variant-numeric:normal;font-variant-alternates:normal;font-feature-settings:normal;text-indent:0;text-align:start;text-decoration:none;text-decoration-line:none;text-decoration-style:solid;text-decoration-color:#ff0000;letter-spacing:normal;word-spacing:normal;text-transform:none;writing-mode:lr-tb;direction:ltr;text-orientation:mixed;dominant-baseline:auto;baseline-shift:baseline;text-anchor:start;white-space:normal;shape-padding:0;clip-rule:nonzero;display:inline;overflow:visible;visibility:visible;opacity:1;isolation:auto;mix-blend-mode:normal;color-interpolation:sRGB;color-interpolation-filters:linearRGB;solid-color:#ff0000;solid-opacity:1;vector-effect:none;fill:#ff0000;fill-opacity:1;fill-rule:nonzero;stroke:none;stroke-width:0.5291667;stroke-linecap:round;stroke-linejoin:round;stroke-miterlimit:4;stroke-dasharray:none;stroke-dashoffset:0;stroke-opacity:1;marker:none;color-rendering:auto;image-rendering:auto;shape-rendering:auto;text-rendering:auto;enable-background:accumulate" d="m 13.223211,272.6583 c -3.4230127,0 -6.2617288,2.23813 -6.325039,5.0913 -0.6251511,0.57875 -1.1745117,1.24214 -1.6337907,1.9721 l -1.6860401,-0.84591 c -0.042555,-0.0218 -0.089862,-0.0327 -0.1376474,-0.0316 -0.3049968,0.004 -0.3949108,0.41908 -0.1191072,0.54985 l 1.6495215,0.82562 c -0.7289334,1.32421 -1.168889,2.83896 -1.2303992,4.45402 H 1.8692661 c -0.3756882,0.008 -0.3756882,0.56968 0,0.57749 h 1.8669482 c 0.030503,1.69219 0.475031,3.28003 1.2348938,4.66044 l -1.6495215,0.82561 c -0.3462343,0.17113 -0.088132,0.69211 0.2567546,0.51826 l 1.6860401,-0.84591 c 1.6926146,2.6902 4.6230865,4.47377 7.9588297,4.47377 3.335472,0 6.26665,-1.78338 7.959952,-4.47321 l 1.684918,0.84535 c 0.34494,0.17401 0.603144,-0.34718 0.256753,-0.51826 l -1.648397,-0.82505 c 0.760382,-1.38055 1.205494,-2.96854 1.236017,-4.661 h 1.864702 c 0.39157,0.008 0.39157,-0.58563 0,-0.57749 h -1.869758 c -0.06154,-1.61533 -0.501527,-3.13021 -1.230961,-4.45459 l 1.648397,-0.82505 c 0.280019,-0.13273 0.182094,-0.55492 -0.127534,-0.54985 -0.04494,2.6e-4 -0.0892,0.0111 -0.129219,0.0316 l -1.684918,0.84536 c -0.459067,-0.72923 -1.008024,-1.39212 -1.632666,-1.97043 -0.06263,-2.8537 -2.903822,-5.09242 -6.327286,-5.09242 z m 0,0.57804 c 0.541128,0 1.060869,0.0637 1.555135,0.17483 -0.212202,0.63663 0.04458,1.36136 0.644976,1.70932 0.667545,0.38685 1.522379,0.17101 1.931557,-0.47653 0.830204,0.68874 1.389743,1.58176 1.561316,2.56706 -1.586119,-1.23195 -3.55691,-1.96252 -5.692984,-1.96252 -2.135233,0 -4.1053577,0.72976 -5.6907374,1.96083 0.1717238,-0.98425 0.7302887,-1.87656 1.5590676,-2.56482 0.4093819,0.64724 1.2663978,0.86275 1.9338058,0.47598 0.600404,-0.34796 0.856615,-1.07269 0.644414,-1.70932 0.49369,-0.11087 1.012907,-0.17483 1.55345,-0.17483 z m -2.114714,0.3254 c 0.152046,0.39272 0.004,0.84179 -0.371929,1.05966 -0.415701,0.2409 -0.9381495,0.0997 -1.1781495,-0.3175 -0.00146,-0.002 -0.00296,-0.005 -0.00449,-0.007 0.4612135,-0.30734 0.9861535,-0.55481 1.5545725,-0.73538 z m 4.231113,5.8e-4 c 0.568183,0.18061 1.092885,0.42815 1.554011,0.73538 -0.0012,0.002 -0.0023,0.005 -0.0034,0.007 -0.239999,0.41726 -0.764697,0.5584 -1.180397,0.3175 -0.375778,-0.21778 -0.522318,-0.6665 -0.370244,-1.05909 z m -2.402931,2.271 v 10e-4 18.46242 10e-4 c -4.7906565,-0.15678 -8.6296494,-4.22098 -8.6296494,-9.23235 0,-5.01138 3.8389929,-9.07557 8.6296494,-9.23233 z m 0.57531,0 c 4.789694,0.15797 8.62965,4.22174 8.62965,9.23234 0,5.01059 -3.839956,9.07437 -8.62965,9.23233 v -0.001 -18.46252 -0.001 z m 3.450736,2.30316 c -0.949795,0 -1.72424,0.77963 -1.724245,1.733 -2e-6,0.95338 0.774446,1.73074 1.724245,1.73074 0.9498,0 1.725932,-0.77736 1.72593,-1.73074 -4e-6,-0.95337 -0.776136,-1.733 -1.72593,-1.733 z m -6.33459,0.009 c -0.790934,0 -1.4371555,0.64922 -1.4371506,1.44314 2.6e-6,0.79391 0.6462218,1.44258 1.4371506,1.44257 0.790928,0 1.439959,-0.64866 1.439961,-1.44257 5e-6,-0.79392 -0.649028,-1.44314 -1.439961,-1.44314 z m -2.5838377,3.74344 c -0.9497995,0 -1.7264943,0.77962 -1.7264917,1.733 4.5e-6,0.95338 0.7766972,1.73244 1.7264917,1.73244 0.9497944,0 1.7259251,-0.77906 1.72593,-1.73244 2.2e-6,-0.95338 -0.7761307,-1.733 -1.72593,-1.733 z m 8.3386227,1.45328 c -0.790933,0 -1.437717,0.65147 -1.437712,1.4454 2e-6,0.79391 0.646785,1.44313 1.437712,1.44313 0.79093,0 1.439397,-0.64922 1.439399,-1.44313 6e-6,-0.79393 -0.648464,-1.4454 -1.439399,-1.4454 z m -6.019966,4.32093 c -0.7909292,0 -1.437711,0.6509 -1.4377133,1.44482 2.3e-6,0.79392 0.6467841,1.44314 1.4377133,1.44314 0.790928,0 1.43771,-0.64922 1.437713,-1.44314 -3e-6,-0.79392 -0.646785,-1.44482 -1.437713,-1.44482 z m 6.88855,0.8696 c -0.949799,0 -1.726493,0.77737 -1.726491,1.73075 4e-6,0.95337 0.776698,1.73243 1.726491,1.73243 0.949794,0 1.726487,-0.77906 1.726491,-1.73243 2e-6,-0.95338 -0.776692,-1.73075 -1.726491,-1.73075 z"/></g><text x="0" y="41.458334" fill="#ff0000" font-size   ="5px" font-weight="bold" font-family="'Helvetica Neue', Helvetica, Arial-Unicode, Arial, Sans-serif">Created by Icons fest</text><text x="0" y="46.458334" fill="#ff0000" font-size="5px" font-weight="bold" font-family="'Helvetica Neue', Helvetica, Arial-Unicode, Arial, Sans-serif">from the Noun Project</text></svg>