<?xml version="1.0" encoding="UTF-8"?>
<svg width="30px" height="20px" viewBox="0 0 30 20" version="1.1" xmlns="http://www.w3.org/2000/svg" xmlns:xlink="http://www.w3.org/1999/xlink">
    <!-- Generator: Sketch 52.5 (67469) - http://www.bohemiancoding.com/sketch -->
    <title>icon/pd-daisy</title>
    <desc>Created with Sketch.</desc>
    <g id="icon/pd-daisy" stroke="none" stroke-width="1" fill="none" fill-rule="evenodd">
        <path d="M1.68635194,11.3793103 L3.42540668,11.3793103 C3.78957872,8.8906839 4.99818726,6.66186956 6.76446486,4.96789572 C8.89859682,2.92112588 11.8468727,1.65517241 15.1034483,1.65517241 C18.3600239,1.65517241 21.3082997,2.92112588 23.4424317,4.96789572 C25.2087093,6.66186956 26.4173178,8.8906839 26.7814899,11.3793103 L28.5205446,11.3793103 C27.7050671,4.96687869 22.0089785,0 15.1034483,0 C8.19791807,0 2.5018295,4.96687869 1.68635194,11.3793103 Z" id="Combined-Shape" fill="#428BCA"></path>
        <path d="M15.4482759,8.68965517 C15.7787404,8.36767675 16.031614,8.1607802 16.2068966,8.06896552 C16.3821791,7.97715083 16.6120642,7.93117382 16.8965517,7.93103448 L22.6896552,7.93103448 L22.6896552,18.5517241 C22.6632894,18.899929 22.5943238,19.1298141 22.4827586,19.2413793 C22.3711934,19.3529445 22.1413083,19.42191 21.7931034,19.4482759 L17.3103448,19.4482759 C16.9190377,19.5608875 16.6431757,19.6528415 16.4827586,19.7241379 C16.3223416,19.7954344 16.1844106,19.8873884 16.0689655,20 L15.4482759,20 L15.4482759,8.68965517 Z" id="Path-2" fill="#428BCA"></path>
        <path d="M7.31034483,8.68965517 C7.64080937,8.36767675 7.89368293,8.1607802 8.06896552,8.06896552 C8.2442481,7.97715083 8.47413316,7.93117382 8.75862069,7.93103448 L14.5517241,7.93103448 L14.5517241,18.5517241 C14.5253583,18.899929 14.4563928,19.1298141 14.3448276,19.2413793 C14.2332624,19.3529445 14.0033773,19.42191 13.6551724,19.4482759 L9.17241379,19.4482759 C8.78110669,19.5608875 8.50524462,19.6528415 8.34482759,19.7241379 C8.18441056,19.7954344 8.04647952,19.8873884 7.93103448,20 L7.31034483,20 L7.31034483,8.68965517 Z" id="Path-2-Copy" fill="#428BCA" transform="translate(10.931034, 13.965517) scale(-1, 1) translate(-10.931034, -13.965517) "></path>
        <path d="M3.5862069,17.2413793 C2.34482759,17.2413793 1.44827586,16.9425287 0.896551724,16.3448276 C0.658852092,16.0873197 0.102150462,15.1801073 0.0689655172,13.7931034 C0.0607152988,13.4482759 0.0607152988,11.862069 0.482758621,11.2413793 C0.842138546,10.7128473 1.18696613,10.4139967 1.51724138,10.3448276 L3.5862069,10.3448276 L3.5862069,10.137931 L4.75862069,10.137931 L4.75862069,17.2413793 L3.5862069,17.2413793 Z" id="Combined-Shape" fill="#428BCA"></path>
        <path d="M28.9674171,17.2413793 C27.7260378,17.2413793 26.8294861,16.9425287 26.277762,16.3448276 C26.0400623,16.0873197 25.4833607,15.1801073 25.4501757,13.7931034 C25.4419255,13.4482759 25.4419255,11.862069 25.8639688,11.2413793 C26.2233488,10.7128473 26.5681764,10.4139967 26.8984516,10.3448276 L28.9674171,10.3448276 L28.9674171,10.137931 L30.1398309,10.137931 L30.1398309,17.2413793 L28.9674171,17.2413793 Z" id="Combined-Shape-Copy" fill="#428BCA" transform="translate(27.794053, 13.689655) scale(-1, 1) translate(-27.794053, -13.689655) "></path>
    </g>
</svg>